<?xml version="1.0" encoding="UTF-8" standalone="no"?>
<!-- Created with Inkscape (http://www.inkscape.org/) -->
<svg xmlns:svg="http://www.w3.org/2000/svg" xmlns="http://www.w3.org/2000/svg" xmlns:xlink="http://www.w3.org/1999/xlink" version="1.0" width="400" height="360" id="svg2">
  <defs id="defs5">
    <linearGradient id="linearGradient2889">
      <stop style="stop-color: rgb(160, 163, 225); stop-opacity: 1;" offset="0" id="stop2891"/>
      <stop style="stop-color: rgb(222, 220, 250); stop-opacity: 1;" offset="1" id="stop2893"/>
    </linearGradient>
    <linearGradient id="linearGradient2812">
      <stop style="stop-color: black; stop-opacity: 1;" offset="0" id="stop2814"/>
      <stop style="stop-color: white; stop-opacity: 0;" offset="1" id="stop2816"/>
    </linearGradient>
    <radialGradient cx="235.81821" cy="243.61661" r="90.353043" fx="235.81821" fy="243.61661" id="radialGradient2842" xlink:href="#linearGradient2812" gradientUnits="userSpaceOnUse" gradientTransform="matrix(0.599677, 2.10614, -1.19922, 0.341442, 437.027, -356.735)"/>
    <radialGradient cx="144.95096" cy="155.32291" r="76.361206" fx="144.95096" fy="155.32291" id="radialGradient2879" xlink:href="#linearGradient2812" gradientUnits="userSpaceOnUse" gradientTransform="matrix(-0.583529, 2.45553, -1.43758, -0.341624, 451.511, -165.909)"/>
    <linearGradient x1="92.604424" y1="304.50995" x2="263.82959" y2="26.290426" id="linearGradient2895" xlink:href="#linearGradient2889" gradientUnits="userSpaceOnUse"/>
    <mask id="mask2804">
      <path d="M 100,24 C 100,24 88.5,66.5 134,76 C 179.5,85.5 217,67 217,67 C 217,67 211,163.46447 196,192.46447 C 181,221.46447 141.5,254 118,254 C 94.5,254 76,238.5 70,223.5 C 64,208.5 60.5,128 71,102 C 78.202941,84.164147 73,78.5 82,49.5 C 87.643273,31.316121 100.5,23 100,24 z " style="fill: white; fill-opacity: 1; fill-rule: evenodd; stroke: white; stroke-width: 1.25; stroke-linecap: butt; stroke-linejoin: miter; stroke-miterlimit: 4; stroke-dasharray: none; stroke-opacity: 1;" id="use2848"/>
    </mask>
    <mask id="mask2811">
      <path d="M 168.99397,144.76334 C 168.99397,144.76334 214.49314,156.63269 246.14473,148.71979 C 277.79633,140.80689 309.44793,103.22062 309.44793,103.22062 C 309.44793,103.22062 344.06686,191.25162 348.02331,221.91411 C 351.97976,252.57659 350.00153,289.17375 327.25195,311.92334 C 304.50236,334.67292 255.67246,325.40751 232.29716,302.03221 C 218.4143,288.14936 204.60201,261.4786 192.73266,233.78346 C 180.86331,206.08831 168.00485,143.77423 168.99397,144.76334 z " style="fill: white; fill-opacity: 1; fill-rule: evenodd; stroke: white; stroke-width: 1.25; stroke-linecap: butt; stroke-linejoin: round; stroke-miterlimit: 4; stroke-dasharray: none; stroke-opacity: 1;" id="use2796"/>
    </mask>
  </defs>
  <path d="M 374 169 A 190 152 0 1 1  -6,169 A 190 152 0 1 1  374 169 z" transform="matrix(0.851641, -0.524127, 0.524127, 0.851641, -45.2792, 130.512)" style="opacity: 1; fill: url(#linearGradient2895) rgb(0, 0, 0); fill-opacity: 1; stroke: none; stroke-width: 3.125; stroke-linecap: butt; stroke-linejoin: round; stroke-miterlimit: 4; stroke-dasharray: none; stroke-dashoffset: 0pt; stroke-opacity: 1;" id="path2869"/>
  <path d="M 109,34 C 109,34 97.5,76.5 143,86 C 188.5,95.5 226,77 226,77 C 226,77 220,173.46447 205,202.46447 C 190,231.46447 150.5,264 127,264 C 103.5,264 85,248.5 79,233.5 C 73,218.5 69.5,138 80,112 C 87.202941,94.164147 82,88.5 91,59.5 C 96.643273,41.316121 109.5,33 109,34 z " style="fill: url(#radialGradient2879) rgb(0, 0, 0); fill-opacity: 1; fill-rule: evenodd; stroke: none; stroke-width: 3.125; stroke-linecap: butt; stroke-linejoin: miter; stroke-miterlimit: 4; stroke-dasharray: none; stroke-opacity: 1;" id="path2871"/>
  <path d="M 178.99397,153.76334 C 178.99397,153.76334 224.49314,165.63269 256.14473,157.71979 C 287.79633,149.80689 319.44793,112.22062 319.44793,112.22062 C 319.44793,112.22062 354.06686,200.25162 358.02331,230.91411 C 361.97976,261.57659 360.00153,298.17375 337.25195,320.92334 C 314.50236,343.67292 265.67246,334.40751 242.29716,311.03221 C 228.4143,297.14936 214.60201,270.4786 202.73266,242.78346 C 190.86331,215.08831 178.00485,152.77423 178.99397,153.76334 z " style="fill: url(#radialGradient2842) rgb(0, 0, 0); fill-opacity: 1; fill-rule: evenodd; stroke: none; stroke-width: 3.125; stroke-linecap: butt; stroke-linejoin: round; stroke-miterlimit: 4; stroke-dasharray: none; stroke-opacity: 1;" id="path2810"/>
  <path d="M 168.99397,144.76334 C 168.99397,144.76334 214.49314,156.63269 246.14473,148.71979 C 277.79633,140.80689 309.44793,103.22062 309.44793,103.22062 C 309.44793,103.22062 344.06686,191.25162 348.02331,221.91411 C 351.97976,252.57659 350.00153,289.17375 327.25195,311.92334 C 304.50236,334.67292 255.67246,325.40751 232.29716,302.03221 C 218.4143,288.14936 204.60201,261.4786 192.73266,233.78346 C 180.86331,206.08831 168.00485,143.77423 168.99397,144.76334 z " style="fill: rgb(232, 231, 254); fill-opacity: 1; fill-rule: evenodd; stroke: black; stroke-width: 3.125; stroke-linecap: butt; stroke-linejoin: round; stroke-miterlimit: 4; stroke-dasharray: none; stroke-opacity: 1;" id="path1891"/>
  <path d="M 230,130 C 230,130 229,168 233,177 C 237,186 245,185 249,190 C 253,195 248,244 254,254 C 260,264 270,254 274,257 C 278,260 273,266 279,268 C 285,270 298,256.5 301,250.5 C 304,244.5 308.5,242 313,243 C 317.5,244 319,259.75 314.5,268.25 C 312.74542,271.5642 310.99542,277.1267 302.37157,282.04815 C 293.74771,286.9696 278.75,286.25 280.5,294 C 282.18467,301.46069 291.5,294.25 293.5,298.25 C 295.5,302.25 290.96819,307.68488 292,312.5 C 294.25,323 313.5,334.25 313.5,334.25 L 134,343 L 129,131.5 L 230,130 z " style="fill: black; fill-opacity: 1; fill-rule: evenodd; stroke: none; stroke-width: 1px; stroke-linecap: butt; stroke-linejoin: miter; stroke-opacity: 1;" mask="url(#mask2811)" id="path2779"/>
  <path d="M 202.44537,210.12494 C 205.14929,210.31723 207.3532,208.46291 214.93802,208.04741 C 222.52284,207.6319 231,209.29393 231,204.30786 C 231,199.3218 223.41518,195.58225 214.93802,196.82876 C 206.46087,198.07528 198.87604,204.30786 197.98371,206.80089 C 197.22392,208.92363 199.80167,209.93693 202.44537,210.12494 z " style="fill: rgb(232, 231, 254); fill-opacity: 1; fill-rule: evenodd; stroke: none; stroke-width: 1px; stroke-linecap: butt; stroke-linejoin: miter; stroke-opacity: 1;" id="path2802"/>
  <path d="M 281.07495,195.59767 C 286.16993,195.46824 288.85312,191.70858 295.92419,188.5266 C 302.99526,185.34462 314.66251,184.28396 315.72317,179.68777 C 316.78384,175.09158 306.88435,170.14182 296.27774,172.26315 C 284.54658,174.60938 282.18677,179.6494 278.24652,185.34463 C 275.62376,189.13556 275.74544,195.73306 281.07495,195.59767 z " style="fill: black; fill-opacity: 1; fill-rule: evenodd; stroke: none; stroke-width: 1px; stroke-linecap: butt; stroke-linejoin: miter; stroke-opacity: 1;" id="path2804"/>
  <path d="M 264,170 C 268.0002,174.67102 277,170 282.5,165.5 C 288,161 289.5,154.5 295,151 C 299.30185,148.26246 308.58769,150.38617 309,147.5 C 309.5,144 300,139.5 291.5,144 C 283,148.5 282,153.5 275.5,158.5 C 269,163.5 261.20621,166.7377 264,170 z " style="fill: black; fill-opacity: 1; fill-rule: evenodd; stroke: none; stroke-width: 1px; stroke-linecap: butt; stroke-linejoin: miter; stroke-opacity: 1;" id="path2806"/>
  <path d="M 332,245 C 332,245 323,230.5 315,230 C 307,229.5 304,235.5 299,236 C 295.48201,236.3518 288.5,235.5 288.5,235.5 C 288.5,235.5 292.5,242.5 298.5,242.5 C 304.5,242.5 308.5,236.5 312,237 C 315.5,237.5 332,245 332,245 z " style="fill: black; fill-opacity: 1; fill-rule: evenodd; stroke: none; stroke-width: 1px; stroke-linecap: butt; stroke-linejoin: miter; stroke-opacity: 1;" id="path2808"/>
  <path d="M 100,24 C 100,24 88.5,66.5 134,76 C 179.5,85.5 217,67 217,67 C 217,67 211,163.46447 196,192.46447 C 181,221.46447 141.5,254 118,254 C 94.5,254 76,238.5 70,223.5 C 64,208.5 60.5,128 71,102 C 78.202941,84.164147 73,78.5 82,49.5 C 87.643273,31.316121 100.5,23 100,24 z " style="fill: rgb(232, 231, 254); fill-opacity: 1; fill-rule: evenodd; stroke: black; stroke-width: 3.125; stroke-linecap: butt; stroke-linejoin: miter; stroke-miterlimit: 4; stroke-dasharray: none; stroke-opacity: 1;" id="path2844"/>
  <path d="M 127.98633,55.236977 C 127.98633,55.236977 108.18734,75.035967 104.6518,80.692821 C 101.11627,86.349676 98.287843,92.00653 99.702056,96.956277 C 101.11627,101.90602 106.77312,101.90602 106.77312,110.39131 C 106.77312,118.87659 95.459415,129.48319 92.630988,137.96847 C 89.802561,146.45375 86.974134,158.47457 90.509668,162.71721 C 94.045202,166.95985 98.287843,164.83853 99.702056,168.37406 C 101.11627,171.9096 98.994949,174.73802 101.11627,177.56645 C 103.23759,180.39488 120.91526,179.68777 130.81475,188.88016 C 140.71425,198.07255 145.664,214.336 140.71425,217.87154 C 135.7645,221.40707 127.27922,219.28575 123.74369,212.92179 C 120.20815,206.55783 113.13709,199.48676 108.18734,198.77965 C 103.23759,198.07255 91.923882,196.65833 91.923882,200.19387 C 91.923882,203.7294 103.9447,205.85072 106.06602,210.09336 C 108.18734,214.336 110.30866,217.87154 106.77312,218.57864 C 103.23759,219.28575 96.873629,212.92179 94.752309,216.45732 C 92.630988,219.99286 91.923882,229.18525 95.459415,235.54921 C 98.994949,241.91317 115.25841,265.9548 115.25841,265.9548 L 52.325902,265.9548 L 52.325902,11.396357 L 128.69343,11.396357 L 127.98633,55.236977 z " style="fill: black; fill-opacity: 1; fill-rule: evenodd; stroke: none; stroke-width: 1px; stroke-linecap: butt; stroke-linejoin: miter; stroke-opacity: 1;" mask="url(#mask2804)" id="path2846"/>
  <path d="M 88.25,99.75 C 98.502009,100.63773 98.75,107.25 89,107.75 C 80.666791,108.17734 79.25,107.75 79.75,104 C 80.063454,101.6491 85.014163,99.469805 88.25,99.75 z " style="fill: rgb(232, 231, 254); fill-opacity: 1; fill-rule: evenodd; stroke: none; stroke-width: 1px; stroke-linecap: butt; stroke-linejoin: miter; stroke-opacity: 1;" id="path2861"/>
  <path d="M 127.5,165 C 127.5,165 127,174 132,182 C 137,190 144,194 147,202 C 149.0549,207.47973 152.75,218.25 152.75,218.25 C 152.75,218.25 154.75,202.25 151.25,196.75 C 147.75,191.25 141.75,186.25 137.75,181.25 C 133.75,176.25 128,165 127.5,165 z " style="fill: black; fill-opacity: 1; fill-rule: evenodd; stroke: none; stroke-width: 1px; stroke-linecap: butt; stroke-linejoin: miter; stroke-opacity: 1;" id="path2863"/>
  <path d="M 177.25,122.75 C 180.09363,119.77605 168.75,102.25 161,97 C 154.39933,92.528577 144.19261,87.222827 140.75,89.75 C 134.90943,94.037483 139.18062,98.344194 144.21068,99.691994 C 149.95888,101.23222 157.69757,105.54766 160.5,108.25 C 167.5,115 175.30688,124.78216 177.25,122.75 z " style="fill: black; fill-opacity: 1; fill-rule: evenodd; stroke: none; stroke-width: 1px; stroke-linecap: butt; stroke-linejoin: miter; stroke-opacity: 1;" id="path2865"/>
  <path d="M 159.45258,133.37228 C 163.43444,130.62362 156.2706,119.93725 151.32085,116.75527 C 146.3711,113.57329 142.83994,111.29583 137.88582,112.33585 C 132.08647,113.55332 127.30626,120.72545 127.98633,122.76567 C 129.04699,125.94766 136.82012,126.09412 142.48202,128.77608 C 149.19953,131.95806 155.74494,135.93165 159.45258,133.37228 z " style="fill: black; fill-opacity: 1; fill-rule: evenodd; stroke: none; stroke-width: 1px; stroke-linecap: butt; stroke-linejoin: miter; stroke-opacity: 1;" id="path2867"/>
</svg>